<?xml version="1.0" ?><svg style="enable-background:new 0 0 64 64;" version="1.1" viewBox="0 0 64 64" xml:space="preserve" xmlns="http://www.w3.org/2000/svg" xmlns:xlink="http://www.w3.org/1999/xlink"><style type="text/css">
	.st0{fill:#FFEEA9;}
	.st1{fill:#D32436;}
	.st2{fill:#8DD1D3;}
	.st3{fill:#330D00;}
	.st4{fill:none;stroke:#330D00;stroke-linecap:round;stroke-linejoin:round;stroke-miterlimit:10;}
</style><g id="_x34_0-Id_Card"/><g id="_x33_9-Formula"/><g id="_x33_8-Elbow"/><g id="_x33_7-Diploma"/><g id="_x33_6-Laptop"/><g id="_x33_5-Brush"/><g id="_x33_4-Baseball"/><g id="_x33_3-Student"/><g id="_x33_2-Highlighter"/><g id="_x33_1-Ruler"/><g id="_x33_0-Caliper"/><g id="_x32_9-Ruler_Elbow"/><g id="_x32_8-Abacus"/><g id="_x32_7-Id_Card"><g><g><rect class="st1" height="39.7" width="61.8" x="1.1" y="12.1"/></g><g><circle class="st0" cx="18.3" cy="26.3" r="7.1"/></g><g><path class="st2" d="M31,44.8H5.5v-0.7c0-5.9,4.8-10.7,10.7-10.7h4.2c5.9,0,10.7,4.8,10.7,10.7V44.8z"/></g><g><g><path class="st3" d="M62.9,11H1.1C0.5,11,0,11.5,0,12.1v39.7C0,52.5,0.5,53,1.1,53h61.8c0.6,0,1.1-0.5,1.1-1.1V12.1      C64,11.5,63.5,11,62.9,11z M61.8,50.8H2.2V13.2h59.6V50.8z"/></g><g><path class="st3" d="M5.5,45.9H31c0.6,0,1.1-0.5,1.1-1.1v-1c0-5.4-3.7-9.9-8.7-11.1c1.9-1.5,3.1-3.8,3.1-6.3      c0-4.5-3.7-8.2-8.2-8.2s-8.2,3.7-8.2,8.2c0,2.6,1.2,4.8,3.1,6.3c-5,1.2-8.7,5.7-8.7,11.1v1C4.4,45.4,4.9,45.9,5.5,45.9z       M12.3,26.3c0-3.3,2.7-6,6-6s6,2.7,6,6s-2.7,6-6,6S12.3,29.6,12.3,26.3z M15.8,34.5h4.9c5.1,0,9.2,4.1,9.2,9.1H6.6      C6.6,38.6,10.8,34.5,15.8,34.5z"/></g><g><path class="st3" d="M39.9,26.5h18.3c0.6,0,1.1-0.5,1.1-1.1c0-0.6-0.5-1.1-1.1-1.1H39.9c-0.6,0-1.1,0.5-1.1,1.1      C38.8,26,39.3,26.5,39.9,26.5z"/></g><g><path class="st3" d="M39.9,33.1h18.3c0.6,0,1.1-0.5,1.1-1.1s-0.5-1.1-1.1-1.1H39.9c-0.6,0-1.1,0.5-1.1,1.1S39.3,33.1,39.9,33.1z      "/></g><g><path class="st3" d="M39.9,39.7h18.3c0.6,0,1.1-0.5,1.1-1.1s-0.5-1.1-1.1-1.1H39.9c-0.6,0-1.1,0.5-1.1,1.1S39.3,39.7,39.9,39.7z      "/></g></g></g></g><g id="_x32_6-Eraser"/><g id="_x32_5-Pencil"/><g id="_x32_4-Ink"/><g id="_x32_3-Graduation_Cap"/><g id="_x32_2-_Sling_Bag"/><g id="_x32_1-Rugby_Ball"/><g id="_x32_0-Clock"/><g id="_x31_9-Certificate"/><g id="_x31_8-Idea"/><g id="_x31_7-Bookshelf"/><g id="_x31_6-Formula"/><g id="_x31_5-Bell"/><g id="_x31_4-Magnifying_Glass"/><g id="_x31_3-Calculator"/><g id="_x31_2-Eyeglasses"/><g id="_x31_1-Bus"/><g id="_x31_0-Trophy"/><g id="_x39_-Globe"/><g id="_x38_-Basket_Ball"/><g id="_x37_-Pen"/><g id="_x36_-Board"/><g id="_x35_-Bag"/><g id="_x34_-Exam"/><g id="_x33_-Book"/><g id="_x32_-Ruler"/><g id="_x31_-Building"/></svg>