<?xml version="1.0" ?><svg style="enable-background:new 0 0 48 48;" version="1.1" viewBox="0 0 48 48" xml:space="preserve" xmlns="http://www.w3.org/2000/svg" xmlns:xlink="http://www.w3.org/1999/xlink"><g id="Icons"><g><polygon points="12.5529,32.82685 12.1651,34.60145 14.3112,35.23375 29.3251,35.77955 30.6751,36.58155     32.2251,36.58155 35.1759,35.33535 35.835,34.60145 35.4651,32.93155 31.7428,28.30425 30.1818,25.76605 29.9625,25.51765     28.4125,25.52765 28.075,25.98815 18.2708,29.04435   " style="fill:#E6E6E6;"/><polygon points="29.8925,32.77765 29.9225,32.92765 12.5325,32.92765 14.0125,25.62765 21.9625,25.49765     27.1425,25.53765 28.4125,25.52765   " style="fill:#5F83CF;"/><polygon points="35.4625,32.92765 31.4725,32.92765 30.0025,25.73765 29.9625,25.52765 29.9625,25.51765     33.9725,25.49765   " style="fill:#5F83CF;"/><g><polygon points="11.755,36.58155 12.1651,34.60145 30.275,34.60145 30.6751,36.58155    " style="fill:#5F83CF;"/><polygon points="36.245,36.58155 32.2251,36.58155 31.815,34.60145 35.835,34.60145    " style="fill:#5F83CF;"/></g><polygon points="24.2562,29.88945 30.7366,25.51375 24.8966,25.54785 23.808,26.70055   " style="opacity:0.1;"/><g><g><path d="M24.0051,11.41845c-3.77,0-6.81,3.05-6.81,6.81c0,0.14,0.01,0.28,0.02,0.4201      c0.03,0.56,0.13,1.12,0.31,1.6599c0.17,0.53,0.4,1.03,0.71,1.5c0.02,0.03,0.21,0.3,0.5,0.74c0,0,0,0,0.01,0.01      c1.3,1.96,4.73,7.09,4.75,7.12c0.24,0.36,0.77,0.36,1.01,0c0.01-0.02,0.03-0.04,0.04-0.05c0.07-0.11,5.11-7.66,5.27-7.89      c0.04-0.07,0.09-0.14,0.13-0.21c0.27-0.46,0.47-0.9499,0.61-1.46c0.17-0.6,0.25-1.22,0.25-1.84      C30.8051,14.46845,27.7551,11.41845,24.0051,11.41845z M24.1751,21.67845c-1.5,0.0901-2.79-1.05-2.89-2.55      c-0.09-1.5,1.05-2.79,2.54-2.88c1.5-0.0999,2.8,1.04,2.89,2.54S25.6751,21.57845,24.1751,21.67845z" style="fill:#F43734;"/><path d="M18.553,15.82395c0,0,1.5527-3.7648,5.4471-3.489c0,0,1.1515-0.0063,1.1512,0.5481      c-0.0004,0.6544-1.1512,0.4563-1.1512,0.4563S20.6085,12.92755,18.553,15.82395z" style="fill:#FC6060;"/></g></g></g></g></svg>