<?xml version="1.0" encoding="utf-8"?>
<!-- Generator: Adobe Illustrator 24.1.0, SVG Export Plug-In . SVG Version: 6.00 Build 0)  -->
<svg version="1.1" id="Layer_1" xmlns="http://www.w3.org/2000/svg" xmlns:xlink="http://www.w3.org/1999/xlink" x="0px" y="0px"
	 viewBox="0 0 64 64" style="enable-background:new 0 0 64 64;" xml:space="preserve">
<style type="text/css">
	.st0{fill:#FFFFFF;stroke:#FFFFFF;stroke-miterlimit:10;}
</style>
<g>
	<path class="st0" d="M58.38,10.4c-5.51-6.7-15.16-9.1-23.72-6l-0.39-1.2c-0.39-1-0.98-1.7-1.67-1.9c-0.3-0.1-0.98-0.1-1.57,0.4
		L30.72,2c0,0,0,0.1-0.1,0.1l0.2-0.9l0,0V1.1c0,0,0,0,0-0.1s0-0.1-0.1-0.2l0,0l0,0c0-0.1-0.1-0.1-0.2-0.1c0,0,0,0-0.1,0h-0.1l0,0
		l-3.54-0.1c-0.1,0-0.2,0-0.3,0.1l-4.33,3.6c-0.1,0.1-0.1,0.2-0.2,0.3l-0.69,3.6c0,0.1,0,0.3,0.1,0.4c0.1,0.1,0.2,0.1,0.39,0.1l0,0
		h1.18c-0.1,0.1-0.2,0.1-0.3,0.2l-0.3,0.3c-0.69,0.6-0.69,1.2-0.69,1.5c0.1,0.7,0.59,1.4,1.57,2l1.08,0.6c-1.38,2.4-2.26,5.2-2.66,8
		v0.1c-4.92,0-9.65,1.7-13.39,5c-8.86,7.6-10.04,21-2.56,30c4.13,5,10.14,7.6,16.04,7.6c4.72,0,9.55-1.6,13.48-5s6.5-8.1,7.28-13.2
		v-0.1c4.33,0,8.56-1.4,12.21-4.1c4.82-3.6,7.78-8.8,8.56-14.8C63.89,20.9,62.12,14.9,58.38,10.4z M30.23,6.7l-0.59,0.5l0.39-2
		L30.23,6.7z M27.97,3.7l1.67-1.3l-0.79,4L27.97,3.7z M28.06,7L25.6,5.6l1.57-1.3L28.06,7z M25.01,4.8l0.1-1.3l1.38,0.2L25.01,4.8z
		 M24.72,6.4l2.46,1.4h-4.13L24.72,6.4z M26.98,1.5h2.07l-1.48,1.2h-0.1L25.8,2.5L26.98,1.5z M24.03,4l-0.1,1.7l0,0l-1.48,1.2
		L22.95,5L24.03,4z M27.87,8.7l-0.59,0.5L25.6,8.7H27.87z M33.87,57.5c-8.07,6.8-20.08,5.8-26.77-2.4c-3.25-4-4.82-9-4.33-14.1
		c0.39-5.1,2.85-9.8,6.69-13.1c3.64-3.1,8.37-4.7,13.09-4.5c5.32,0.2,10.33,2.8,13.68,6.9c2.17,2.6,3.54,5.7,4.13,9
		c-0.79-0.1-1.48-0.2-2.26-0.4c-0.59-2.6-1.77-5.1-3.54-7.1c-2.07-2.5-4.82-4.3-7.87-5.3c-1.38-0.4-2.85-0.7-4.23-0.7l0,0v-0.1l0,0
		c-4.23-0.2-8.27,1.2-11.52,4c-7.19,6.1-8.07,16.9-2.07,24.2c3.35,4,8.17,6.1,12.99,6.1c3.84,0,7.68-1.3,10.83-4s5.22-6.4,5.81-10.5
		c0.69,0.1,1.38,0.2,2.07,0.3C39.78,50.2,37.42,54.5,33.87,57.5z M42.34,39.4c-0.59-3.8-2.17-7.4-4.63-10.4
		c-2.76-3.3-6.4-5.6-10.33-6.8v-0.1c0.49-3.7,2.36-7.1,5.22-9.5c3.05-2.6,6.89-3.8,10.93-3.5c3.94,0.4,7.58,2.3,10.14,5.4
		c2.56,3.1,3.74,7,3.44,11.1c-0.39,4-2.26,7.7-5.32,10.3C49.13,38.1,45.78,39.3,42.34,39.4z M35.84,37.9c-1.97-0.9-3.64-2.3-5.12-4
		c-1.18-1.5-2.17-3.2-2.76-5c1.97,0.9,3.74,2.3,5.12,4C34.36,34.4,35.25,36.1,35.84,37.9z M21.57,27.5c0.59,4.4,2.36,8.4,5.32,11.5
		c2.66,2.9,6,4.8,9.55,5.8c0,0,0,0,0,0.1c-0.49,3.7-2.36,7-5.22,9.4c-6.3,5.4-15.75,4.5-21.06-1.9s-4.43-16,1.87-21.4
		C14.78,28.8,18.02,27.6,21.57,27.5z M61.23,26.5c-0.69,5.4-3.35,10.2-7.78,13.4c-7.68,5.8-18.5,4.8-25.1-2.2
		c-2.56-2.7-4.23-6.2-4.82-10c0.69,0.1,1.48,0.2,2.17,0.5c0.59,2.6,1.77,5.1,3.54,7.1c2.07,2.5,4.72,4.3,7.78,5.3h0.1
		c1.18,0.4,2.36,0.6,3.64,0.7c0.3,0,0.59,0,0.89,0c0,0,0,0,0.1,0l0,0c0.2,0,0.39,0,0.59,0c3.94,0,7.78-1.4,10.83-4
		c3.44-2.9,5.61-7.1,6-11.7s-0.98-9-3.94-12.5C52.38,9.6,48.24,7.4,43.71,7s-8.86,1-12.3,4c-3.15,2.7-5.22,6.5-5.91,10.7
		c-0.59-0.1-1.28-0.2-1.87-0.3c0.39-2.9,1.38-5.6,2.95-8.1c0.1-0.2,0.2-0.5,0.1-0.8s-0.3-0.4-0.59-0.5l-1.87-1.1
		c-0.2-0.1-0.39-0.2-0.49-0.3l0.2-0.1c0.1-0.1,0.3-0.1,0.49,0c0.1,0,0.1,0.1,0.2,0.1l2.56,0.8c0.3,0.1,0.69,0,0.89-0.2l3.84-3.3
		c0.3-0.2,0.39-0.6,0.3-0.9l-0.3-2.7c0-0.1,0-0.2-0.1-0.2c-0.1-0.2,0-0.4,0.1-0.5l0.2-0.1c0.1,0.1,0.2,0.3,0.2,0.5l0.89,2
		c0.1,0.3,0.3,0.5,0.49,0.6s0.49,0.1,0.79,0c7.97-3.3,17.22-1.2,22.44,5.1C60.35,15.8,61.83,21.1,61.23,26.5z"/>
</g>
</svg>
