<?xml version="1.0" ?><!DOCTYPE svg  PUBLIC '-//W3C//DTD SVG 1.1//EN'  'http://www.w3.org/Graphics/SVG/1.1/DTD/svg11.dtd'><svg enable-background="new 0 0 64 64" id="Layer_1" version="1.1" viewBox="0 0 64 64" xml:space="preserve" xmlns="http://www.w3.org/2000/svg" xmlns:xlink="http://www.w3.org/1999/xlink"><g><path d="M58.8,10.4c-5.6-6.7-15.4-9.1-24.1-6l-0.4-1.2c-0.4-1-1-1.7-1.7-1.9c-0.3-0.1-1-0.1-1.6,0.4L30.7,2    c0,0,0,0.1-0.1,0.1l0.2-0.9c0,0,0,0,0,0c0,0,0-0.1,0-0.1c0,0,0,0,0-0.1c0-0.1,0-0.1-0.1-0.2c0,0,0,0,0,0c0,0,0,0,0,0    c0-0.1-0.1-0.1-0.2-0.1c0,0,0,0-0.1,0c0,0-0.1,0-0.1,0c0,0,0,0,0,0l-3.6-0.1c-0.1,0-0.2,0-0.3,0.1L22,4.3    c-0.1,0.1-0.1,0.2-0.2,0.3l-0.7,3.6c0,0.1,0,0.3,0.1,0.4c0.1,0.1,0.2,0.1,0.4,0.1c0,0,0,0,0,0l1.2,0c-0.1,0.1-0.2,0.1-0.3,0.2    l-0.3,0.3c-0.7,0.6-0.7,1.2-0.7,1.5c0.1,0.7,0.6,1.4,1.6,2l1.1,0.6c-1.4,2.4-2.3,5.2-2.7,8c0,0,0,0.1,0,0.1c-5,0-9.8,1.7-13.6,5    c-9,7.6-10.2,21-2.6,30c4.2,5,10.3,7.6,16.3,7.6c4.8,0,9.7-1.6,13.7-5c4-3.4,6.6-8.1,7.4-13.2c0,0,0-0.1,0-0.1    c4.4,0,8.7-1.4,12.4-4.1c4.9-3.6,7.9-8.8,8.7-14.8C64.4,20.9,62.6,14.9,58.8,10.4z M30.2,6.7l-0.6,0.5L30,5.2L30.2,6.7z M27.9,3.7    l1.7-1.3l-0.8,4L27.9,3.7z M28,7l-2.5-1.4l1.6-1.3L28,7z M24.9,4.8L25,3.5l1.4,0.2L24.9,4.8z M24.6,6.4l2.5,1.4l-4.2,0L24.6,6.4z     M26.9,1.5l2.1,0l-1.5,1.2c0,0-0.1,0-0.1,0l-1.7-0.2L26.9,1.5z M23.9,4l-0.1,1.7c0,0,0,0,0,0l-1.5,1.2L22.8,5L23.9,4z M27.8,8.7    l-0.6,0.5l-1.7-0.5L27.8,8.7z M33.9,57.5c-8.2,6.8-20.4,5.8-27.2-2.4c-3.3-4-4.9-9-4.4-14.1c0.4-5.1,2.9-9.8,6.8-13.1    c3.7-3.1,8.5-4.7,13.3-4.5c5.4,0.2,10.5,2.8,13.9,6.9c2.2,2.6,3.6,5.7,4.2,9c-0.8-0.1-1.5-0.2-2.3-0.4c-0.6-2.6-1.8-5.1-3.6-7.1    c-2.1-2.5-4.9-4.3-8-5.3c-1.4-0.4-2.9-0.7-4.3-0.7c0,0,0,0,0,0c0,0,0-0.1,0-0.1c0,0,0,0,0,0c-4.3-0.2-8.4,1.2-11.7,4    c-7.3,6.1-8.2,16.9-2.1,24.2c3.4,4,8.3,6.1,13.2,6.1c3.9,0,7.8-1.3,11-4c3.2-2.7,5.3-6.4,5.9-10.5c0.7,0.1,1.4,0.2,2.1,0.3    C39.9,50.2,37.5,54.5,33.9,57.5z M42.5,39.4c-0.6-3.8-2.2-7.4-4.7-10.4c-2.8-3.3-6.5-5.6-10.5-6.8c0,0,0-0.1,0-0.1    c0.5-3.7,2.4-7.1,5.3-9.5c3.1-2.6,7-3.8,11.1-3.5c4,0.4,7.7,2.3,10.3,5.4s3.8,7,3.5,11.1c-0.4,4-2.3,7.7-5.4,10.3    C49.4,38.1,46,39.3,42.5,39.4z M35.9,37.9c-2-0.9-3.7-2.3-5.2-4c-1.2-1.5-2.2-3.2-2.8-5c2,0.9,3.8,2.3,5.2,4    C34.4,34.4,35.3,36.1,35.9,37.9z M21.4,27.5c0.6,4.4,2.4,8.4,5.4,11.5c2.7,2.9,6.1,4.8,9.7,5.8c0,0,0,0,0,0.1    c-0.5,3.7-2.4,7-5.3,9.4c-6.4,5.4-16,4.5-21.4-1.9c-5.4-6.4-4.5-16,1.9-21.4C14.5,28.8,17.8,27.6,21.4,27.5z M61.7,26.5    c-0.7,5.4-3.4,10.2-7.9,13.4C46,45.7,35,44.7,28.3,37.7c-2.6-2.7-4.3-6.2-4.9-10c0.7,0.1,1.5,0.2,2.2,0.5c0.6,2.6,1.8,5.1,3.6,7.1    c2.1,2.5,4.8,4.3,7.9,5.3c0,0,0.1,0,0.1,0c1.2,0.4,2.4,0.6,3.7,0.7c0.3,0,0.6,0,0.9,0c0,0,0,0,0.1,0c0,0,0,0,0,0    c0.2,0,0.4,0,0.6,0c4,0,7.9-1.4,11-4c3.5-2.9,5.7-7.1,6.1-11.7c0.4-4.6-1-9-4-12.5c-2.9-3.5-7.1-5.7-11.7-6.1c-4.6-0.4-9,1-12.5,4    c-3.2,2.7-5.3,6.5-6,10.7c-0.6-0.1-1.3-0.2-1.9-0.3c0.4-2.9,1.4-5.6,3-8.1c0.1-0.2,0.2-0.5,0.1-0.8S26.3,12.1,26,12l-1.9-1.1    c-0.2-0.1-0.4-0.2-0.5-0.3l0.2-0.1c0.1-0.1,0.3-0.1,0.5,0c0.1,0,0.1,0.1,0.2,0.1l2.6,0.8c0.3,0.1,0.7,0,0.9-0.2l3.9-3.3    c0.3-0.2,0.4-0.6,0.3-0.9l-0.3-2.7c0-0.1,0-0.2-0.1-0.2c-0.1-0.2,0-0.4,0.1-0.5l0.2-0.1c0.1,0.1,0.2,0.3,0.2,0.5L33.2,6    c0.1,0.3,0.3,0.5,0.5,0.6c0.2,0.1,0.5,0.1,0.8,0c8.1-3.3,17.5-1.2,22.8,5.1C60.8,15.8,62.3,21.1,61.7,26.5z" fill="#4D4D4D"/></g></svg>