<?xml version="1.0" encoding="utf-8"?>
<!-- Generator: Adobe Illustrator 24.1.0, SVG Export Plug-In . SVG Version: 6.00 Build 0)  -->
<svg version="1.1"
	 id="svg8" inkscape:version="0.92.3 (2405546, 2018-03-11)" sodipodi:docname="PDF file icon.svg" xmlns:cc="http://creativecommons.org/ns#" xmlns:dc="http://purl.org/dc/elements/1.1/" xmlns:inkscape="http://www.inkscape.org/namespaces/inkscape" xmlns:rdf="http://www.w3.org/1999/02/22-rdf-syntax-ns#" xmlns:sodipodi="http://sodipodi.sourceforge.net/DTD/sodipodi-0.dtd" xmlns:svg="http://www.w3.org/2000/svg"
	 xmlns="http://www.w3.org/2000/svg" xmlns:xlink="http://www.w3.org/1999/xlink" x="0px" y="0px" viewBox="0 0 213.51 262.5"
	 style="enable-background:new 0 0 213.51 262.5;" xml:space="preserve">
<style type="text/css">
	.st0{fill:#FF2116;}
	.st1{fill:#FFFFFF;}
</style>
<sodipodi:namedview  bordercolor="#666666" borderopacity="1.0" fit-margin-bottom="0" fit-margin-left="0" fit-margin-right="0" fit-margin-top="0" id="base" inkscape:current-layer="g899" inkscape:cx="122.12727" inkscape:cy="167.02823" inkscape:document-units="mm" inkscape:object-nodes="false" inkscape:pageopacity="0.0" inkscape:pageshadow="2" inkscape:snap-others="false" inkscape:snap-page="false" inkscape:window-height="705" inkscape:window-maximized="1" inkscape:window-width="1366" inkscape:window-x="-8" inkscape:window-y="-8" inkscape:zoom="0.98994949" pagecolor="#ffffff" showgrid="false">
	</sodipodi:namedview>
<g id="layer1" transform="translate(36.076172,-93.731774)" inkscape:groupmode="layer" inkscape:label="Capa 1">
	<g id="g899" transform="matrix(1.4843054,0,0,1.4843054,17.471885,-90.243502)">
		<g id="g876">
			<path id="path890" inkscape:connector-curvature="0" class="st0" d="M-17.81,123.95c-10.07,0-18.26,8.2-18.26,18.27v140.31
				c0,10.07,8.2,18.27,18.26,18.27H89.48c10.07,0,18.26-8.2,18.26-18.27V167.15c0,0,0.29-3.38-1.18-6.67
				c-1.37-3.08-3.62-5.23-3.62-5.23c-0.01-0.01-0.01-0.02-0.02-0.02l-26.62-26.11c-0.01-0.01-0.03-0.03-0.04-0.04
				c0,0-2.27-2.16-5.64-3.61c-3.97-1.7-8.06-1.52-8.06-1.52l0.06-0.01L-17.81,123.95z"/>
			<path id="rect2684" inkscape:connector-curvature="0" d="M-17.81,129.95h80.44c0.02,0,0.04,0,0.06,0c0,0,3.22,0.03,5.57,1.04
				c2.26,0.97,3.87,2.44,3.88,2.45c0,0,0.01,0.01,0.01,0.01l26.55,26.05c0,0,1.6,1.69,2.38,3.43c0.63,1.4,0.66,3.97,0.66,3.97
				c0,0.04,0,0.08-0.01,0.13v115.5c0,6.85-5.41,12.27-12.26,12.27H-17.81c-6.85,0-12.26-5.42-12.26-12.27V142.22
				C-30.07,135.37-24.66,129.95-17.81,129.95L-17.81,129.95z"/>
			
				<path id="path2697" inkscape:connector-curvature="0" sodipodi:nodetypes="scccscccscccccssscacccsccccccccccccccccccccaccccccccc" class="st0" d="
				M-0.17,229.24c-4.13-4.13,0.34-9.8,12.46-15.83l7.63-3.79l2.97-6.5c1.63-3.58,4.07-9.41,5.42-12.97l2.45-6.47l-1.69-4.78
				c-2.08-5.88-2.82-14.72-1.5-17.9c1.78-4.31,7.63-3.86,9.94,0.75c1.81,3.6,1.62,10.13-0.52,18.37l-1.76,6.75l1.55,2.62
				c0.85,1.44,3.33,4.87,5.52,7.62l4.11,5.11l5.11-0.67c16.24-2.12,21.8,1.48,21.8,6.65c0,6.52-12.75,7.06-23.46-0.47
				c-2.41-1.69-4.06-3.37-4.06-3.37s-6.71,1.37-10.01,2.26c-3.41,0.92-5.11,1.49-10.1,3.18c0,0-1.75,2.54-2.89,4.39
				c-4.25,6.88-9.21,12.59-12.75,14.66C6.09,231.18,1.93,231.34-0.17,229.24z M6.31,226.93c2.32-1.43,7.02-6.99,10.27-12.15
				l1.32-2.09l-6,3.01c-9.26,4.66-13.5,9.04-11.29,11.7C1.85,228.89,3.33,228.77,6.31,226.93L6.31,226.93z M66.46,210.05
				c2.27-1.59,1.94-4.79-0.63-6.09c-2-1.01-3.61-1.21-8.8-1.14c-3.19,0.22-8.32,0.86-9.19,1.06c0,0,2.82,1.95,4.07,2.66
				c1.66,0.95,5.71,2.72,8.66,3.62C63.5,211.05,65.18,210.96,66.46,210.05L66.46,210.05z M42.28,199.99
				c-1.37-1.44-3.71-4.46-5.19-6.7c-1.94-2.54-2.91-4.33-2.91-4.33s-1.42,4.56-2.58,7.3l-3.62,8.96l-1.05,2.03
				c0,0,5.59-1.83,8.43-2.57c3.01-0.79,9.12-1.99,9.12-1.99L42.28,199.99z M34.48,168.74c0.35-2.94,0.5-5.88-0.45-7.36
				c-2.62-2.87-5.78-0.48-5.25,6.34c0.18,2.29,0.75,6.21,1.51,8.62l1.38,4.39l0.97-3.31C33.19,175.61,34.01,171.7,34.48,168.74
				L34.48,168.74z"/>
			<g id="g858">
				<path id="path845" inkscape:connector-curvature="0" class="st1" d="M6.86,248.36h6.7c2.14,0,3.88,0.2,5.22,0.61
					c1.34,0.4,2.46,1.29,3.37,2.68c0.91,1.38,1.37,3.03,1.37,4.98c0,1.79-0.37,3.32-1.11,4.6c-0.74,1.28-1.74,2.21-2.99,2.78
					c-1.24,0.57-3.16,0.85-5.75,0.85h-2.32v10.57H6.86L6.86,248.36z M11.34,251.84v9.44h2.22c1.98,0,3.35-0.37,4.11-1.11
					c0.77-0.74,1.15-1.94,1.15-3.61c0-1.24-0.25-2.25-0.75-3.01c-0.5-0.78-1.06-1.26-1.67-1.43c-0.6-0.19-1.54-0.28-2.84-0.28
					L11.34,251.84z"/>
				<path id="path847" inkscape:connector-curvature="0" class="st1" d="M26.95,248.36h6.09c2.95,0,5.3,0.52,7.06,1.57
					c1.77,1.04,3.11,2.6,4.01,4.66c0.91,2.06,1.37,4.35,1.37,6.86c0,2.64-0.41,5-1.23,7.08c-0.81,2.06-2.05,3.73-3.73,5
					c-1.67,1.27-4.05,1.9-7.14,1.9h-6.43V248.36z M31.43,251.95v19.89h1.86c2.6,0,4.5-0.9,5.67-2.7c1.18-1.81,1.77-4.22,1.77-7.24
					c0-6.64-2.48-9.96-7.44-9.96L31.43,251.95z"/>
				<path id="path849" inkscape:connector-curvature="0" class="st1" d="M49.78,248.36h15.03v3.59H54.26v8.09h8.45v3.59h-8.45v11.8
					h-4.48V248.36z"/>
			</g>
		</g>
	</g>
</g>
</svg>
