<?xml version="1.0" encoding="utf-8"?>
<!-- Generator: Adobe Illustrator 24.1.0, SVG Export Plug-In . SVG Version: 6.00 Build 0)  -->
<svg version="1.1" id="Livello_1" xmlns="http://www.w3.org/2000/svg" xmlns:xlink="http://www.w3.org/1999/xlink" x="0px" y="0px"
	 viewBox="0 0 1881.25 1750" style="enable-background:new 0 0 1881.25 1750;" xml:space="preserve">
<style type="text/css">
	.st0{fill:#41A5EE;}
	.st1{fill:#2B7CD3;}
	.st2{fill:#185ABD;}
	.st3{fill:#103F91;}
	.st4{opacity:0.1;enable-background:new    ;}
	.st5{opacity:0.2;enable-background:new    ;}
	.st6{fill:url(#SVGID_1_);}
</style>
<path class="st0" d="M1801.06,0H517.69C473.4,0,437.5,35.9,437.5,80.19l0,0V437.5l743.75,218.75l700-218.75V80.19
	C1881.25,35.9,1845.35,0,1801.06,0L1801.06,0z"/>
<path class="st1" d="M1881.25,437.5H437.5V875l743.75,131.25l700-131.25V437.5z"/>
<path class="st2" d="M437.5,875v437.5l700,87.5l743.75-87.5V875H437.5z"/>
<path class="st3" d="M517.69,1750h1283.36c44.29,0,80.19-35.9,80.19-80.19l0,0V1312.5H437.5v357.31
	C437.5,1714.1,473.4,1750,517.69,1750L517.69,1750z"/>
<path class="st4" d="M969.81,350H437.5v1093.75h532.31c44.23-0.14,80.05-35.96,80.19-80.19V430.19
	C1049.86,385.96,1014.04,350.14,969.81,350z"/>
<path class="st5" d="M926.06,393.75H437.5V1487.5h488.56c44.23-0.14,80.05-35.96,80.19-80.19V473.94
	C1006.11,429.71,970.29,393.89,926.06,393.75z"/>
<path class="st5" d="M926.06,393.75H437.5V1400h488.56c44.23-0.14,80.05-35.96,80.19-80.19V473.94
	C1006.11,429.71,970.29,393.89,926.06,393.75z"/>
<path class="st5" d="M882.31,393.75H437.5V1400h444.81c44.23-0.14,80.05-35.96,80.19-80.19V473.94
	C962.36,429.71,926.54,393.89,882.31,393.75z"/>
<linearGradient id="SVGID_1_" gradientUnits="userSpaceOnUse" x1="167.2055" y1="-628.9116" x2="795.2945" y2="458.9126" gradientTransform="matrix(1 0 0 1 0 960)">
	<stop  offset="0" style="stop-color:#2368C4"/>
	<stop  offset="0.5" style="stop-color:#1A5DBE"/>
	<stop  offset="1" style="stop-color:#1146AC"/>
</linearGradient>
<path class="st6" d="M80.19,393.75h802.11c44.29,0,80.19,35.9,80.19,80.19v802.11c0,44.29-35.9,80.19-80.19,80.19H80.19
	c-44.29,0-80.19-35.9-80.19-80.19V473.94C0,429.65,35.9,393.75,80.19,393.75z"/>
<path d="M329.09,1008.79c1.58,12.38,2.62,23.14,3.11,32.38h1.84c0.7-8.75,2.16-19.29,4.38-31.63c2.22-12.34,4.21-22.77,5.99-31.28
	l84.35-363.91h109.07l87.5,358.44c5.08,22.29,8.72,44.88,10.89,67.64h1.44c1.63-22.05,4.67-43.97,9.1-65.62l69.78-360.63h99.27
	l-122.59,521.5H577.24L494.11,790.3c-2.41-9.93-5.16-22.92-8.18-38.89s-4.9-27.65-5.64-35h-1.44c-0.96,8.49-2.84,21.09-5.64,37.8
	c-2.8,16.71-5.05,29.08-6.74,37.1l-78.14,344.27H270.37L147.13,614.34h101.06l75.99,364.66
	C325.89,986.47,327.51,996.45,329.09,1008.79z"/>
</svg>
